<?xml version="1.0" standalone="no"?><!DOCTYPE svg PUBLIC "-//W3C//DTD SVG 1.1//EN" "http://www.w3.org/Graphics/SVG/1.1/DTD/svg11.dtd"><svg xmlns:xlink="http://www.w3.org/1999/xlink" version="1.1" style="font-family:'lucida grande', 'lucida sans unicode', arial, helvetica, sans-serif;font-size:12px;" xmlns="http://www.w3.org/2000/svg" width="600" height="400"><desc>Created with Highcharts 4.2.7</desc><defs><radialGradient cx="0.5" cy="0.3" r="0.7" id="highcharts-41"><stop offset="0" stop-color="#4eb432" stop-opacity="1"></stop><stop offset="1" stop-color="rgb(2,104,0)" stop-opacity="1"></stop></radialGradient><radialGradient cx="0.5" cy="0.3" r="0.7" id="highcharts-42"><stop offset="0" stop-color="#1bd7ed" stop-opacity="1"></stop><stop offset="1" stop-color="rgb(0,139,161)" stop-opacity="1"></stop></radialGradient><radialGradient cx="0.5" cy="0.3" r="0.7" id="highcharts-43"><stop offset="0" stop-color="#3800df" stop-opacity="1"></stop><stop offset="1" stop-color="rgb(0,0,147)" stop-opacity="1"></stop></radialGradient><clipPath id="highcharts-44"><rect x="0" y="0" width="600" height="400"></rect></clipPath><radialGradient cx="0.5" cy="0.3" r="0.7" id="highcharts-45"><stop offset="0" stop-color="rgb(53,155,25)" stop-opacity="1"></stop><stop offset="1" stop-color="rgb(0,79,0)" stop-opacity="1"></stop></radialGradient><radialGradient cx="290" cy="96.39999999999999" r="201.6" id="highcharts-46" gradientUnits="userSpaceOnUse"><stop offset="0" stop-color="#4eb432" stop-opacity="1"></stop><stop offset="1" stop-color="rgb(2,104,0)" stop-opacity="1"></stop></radialGradient><radialGradient cx="0.5" cy="0.3" r="0.7" id="highcharts-47"><stop offset="0" stop-color="rgb(2,190,212)" stop-opacity="1"></stop><stop offset="1" stop-color="rgb(0,114,136)" stop-opacity="1"></stop></radialGradient><radialGradient cx="290" cy="96.39999999999999" r="201.6" id="highcharts-48" gradientUnits="userSpaceOnUse"><stop offset="0" stop-color="#1bd7ed" stop-opacity="1"></stop><stop offset="1" stop-color="rgb(0,139,161)" stop-opacity="1"></stop></radialGradient><radialGradient cx="0.5" cy="0.3" r="0.7" id="highcharts-49"><stop offset="0" stop-color="rgb(31,0,198)" stop-opacity="1"></stop><stop offset="1" stop-color="rgb(0,0,122)" stop-opacity="1"></stop></radialGradient><radialGradient cx="290" cy="96.39999999999999" r="201.6" id="highcharts-50" gradientUnits="userSpaceOnUse"><stop offset="0" stop-color="#3800df" stop-opacity="1"></stop><stop offset="1" stop-color="rgb(0,0,147)" stop-opacity="1"></stop></radialGradient></defs><rect x="10" y="36" width="580" height="308" fill="#ffffff"></rect><rect x="10" y="36" width="580" height="308" stroke="#026FC1" stroke-width="2" fill="none"></rect><g class="highcharts-series-group"><g class="highcharts-series highcharts-series-0" transform="translate(10,36) scale(1 1)"><path fill="url(#highcharts-45)" d="M 270.4486840819698 254.88048881194368 L 270.4486840819698 262.8354401002923 L 290 161.95495128834867 L 290 154 Z" transform="translate(0,0)" visibility="visible"></path><path fill="url(#highcharts-49)" d="M 162.16698774385998 107.1239881308064 L 162.16698774385998 115.07893941915505 L 290 161.95495128834867 L 290 154 Z" transform="translate(0,0)" visibility="visible"></path><path fill="url(#highcharts-49)" d="M 289.942546826129 52.176631613531825 L 289.942546826129 60.131582901880485 L 290 161.95495128834867 L 290 154 Z" transform="translate(0,0)" visibility="visible"></path><path fill="url(#highcharts-47)" d="M 270.4472574173928 254.880350558219 L 270.4472574173928 262.83530184656763 L 290 161.95495128834867 L 290 154 Z" transform="translate(0,0)" visibility="visible"></path><path fill="url(#highcharts-49)" d="M 162.16698774385998 107.1239881308064 C 187.61931443317386 72.41916299869439 234.65538536685943 52.192229324305345 289.942546826129 52.176631613531825 L 289.942546826129 60.131582901880485 C 234.65538536685943 60.147180612654005 187.61931443317386 80.37411428704304 162.16698774385998 115.07893941915505 Z" transform="translate(0,0)" visibility="visible"></path><path fill="url(#highcharts-49)" d="M 290 154 C 290 154 290 154 290 154 L 290 161.95495128834867 C 290 161.95495128834867 290 161.95495128834867 290 161.95495128834867 Z" transform="translate(0,0)" visibility="visible"></path><path fill="url(#highcharts-47)" d="M 162.1663248233343 107.12489204904846 L 162.1663248233343 115.07984333739711 L 290 161.95495128834867 L 290 154 Z" transform="translate(0,0)" visibility="visible"></path><path fill="url(#highcharts-45)" d="M 289.9706710586679 52.17662562109521 L 289.9706710586679 60.13157690944387 L 290 161.95495128834867 L 290 154 Z" transform="translate(0,0)" visibility="visible"></path><path fill="url(#highcharts-47)" d="M 270.4472574173928 254.880350558219 C 198.48689244878494 247.90663127296708 146 205.3593207108225 146 154 L 146 161.95495128834867 C 146 144.8280249235676 151.01595645920776 130.283995710245 162.1663248233343 115.07984333739711 L 162.1663248233343 107.12489204904846 C 151.01595645920776 122.32904442189634 146 136.87307363521893 146 154 L 146 161.95495128834867 C 146 213.31427199917115 198.48689244878494 255.86158256131574 270.4472574173928 262.83530184656763 Z" transform="translate(0,0)" visibility="visible"></path><path fill="url(#highcharts-47)" d="M 290 154 C 290 154 290 154 290 154 C 290 154 290 154 290 154 L 290 161.95495128834867 C 290 161.95495128834867 290 161.95495128834867 290 161.95495128834867 C 290 161.95495128834867 290 161.95495128834867 290 161.95495128834867 Z" transform="translate(0,0)" visibility="visible"></path><path fill="url(#highcharts-45)" d="M 434 154 C 434 210.23549801218292 369.5290039756343 255.82337649086287 290 255.82337649086287 C 283.10455022524434 255.82337649086287 277.280281774254 255.54249355775593 270.4486840819698 254.88048881194368 L 270.4486840819698 262.8354401002923 C 349.24124697158226 270.4707039019864 421.86866183602586 231.4945748814208 432.666555456678 175.77981935510832 C 433.60277154656103 170.94915030055583 434 166.83077058340965 434 161.95495128834867 Z" transform="translate(0,0)" visibility="visible"></path><path fill="url(#highcharts-45)" d="M 290 154 C 290 154 290 154 290 154 C 290 154 290 154 290 154 C 290 154 290 154 290 154 L 290 161.95495128834867 C 290 161.95495128834867 290 161.95495128834867 290 161.95495128834867 C 290 161.95495128834867 290 161.95495128834867 290 161.95495128834867 C 290 161.95495128834867 290 161.95495128834867 290 161.95495128834867 Z" transform="translate(0,0)" visibility="visible"></path><g stroke="#FFFFFF" stroke-width="1" stroke-linejoin="round"><path fill="url(#highcharts-46)" d="M 289.9706710586679 52.17662562109521 C 369.4996733847603 52.16517195705368 433.9837990862139 97.74376446091838 433.99999701324026 153.97926130669904 C 434.01619494026664 210.2147581524797 369.5583312674245 255.81192071486325 290.0293289413321 255.8233743789048 C 283.1235673891238 255.8243689377507 277.2904982062307 255.5434835643047 270.4486840819698 254.88048881194368 L 290 154 C 290 154 290 154 290 154 C 290 154 290 154 290 154 C 290 154 290 154 290 154 Z" transform="translate(0,0)" visibility="visible"></path></g><g stroke="#FFFFFF" stroke-width="1" stroke-linejoin="round"><path fill="url(#highcharts-48)" d="M 270.4472574173928 254.880350558219 C 191.65480251065617 247.24452960935142 136.5349585178734 195.88880229993225 147.3336400636145 140.17412312904352 C 149.6861032320567 128.03683302229138 154.1905583673918 118.00029674657732 162.1663248233343 107.12489204904846 L 290 154 C 290 154 290 154 290 154 C 290 154 290 154 290 154 Z" transform="translate(0,0)" visibility="visible"></path></g><g stroke="#FFFFFF" stroke-width="1" stroke-linejoin="round"><path fill="url(#highcharts-50)" d="M 162.16698774385998 107.1239881308064 C 187.61931443317386 72.41916299869439 234.65538536685943 52.192229324305345 289.942546826129 52.176631613531825 L 290 154 C 290 154 290 154 290 154 Z" transform="translate(0,0)" visibility="visible"></path></g></g><g class="highcharts-markers highcharts-series-0" transform="translate(10,36) scale(1 1)"></g></g><text x="300" text-anchor="middle" class="highcharts-title" style="color:#000000;font-size:10px;font-family:'arial', sans-serif;fill:#000000;width:536px;" y="17"><tspan>Intrest</tspan></text><g class="highcharts-data-labels highcharts-series-0" transform="translate(10,36) scale(1 1)" opacity="1"><path fill="none" d="M 468.7666512955276 163.00837929588482 C 463.7666512955276 163.00837929588482 455.6130156856294 162.46243998896745 444.6386592245335 161.71177344195607 L 433.6643027634376 160.9611068949447" stroke="url(#highcharts-41)" stroke-width="1"></path><path fill="none" d="M 121.91103128640566 214.6464202071008 C 126.91103128640566 214.6464202071008 142.6110537452057 210.96589990525158 152.37779114763183 205.9051844902089 L 162.14452855005794 200.84446907516624" stroke="url(#highcharts-42)" stroke-width="1"></path><path fill="none" d="M 152.37342875646075 41.36700039427872 C 157.37342875646075 41.36700039427872 203.749064294118 48.20235563065063 209.46448774450778 57.600969080662004 L 215.17991119489756 66.99958253067338" stroke="url(#highcharts-43)" stroke-width="1"></path><g style="cursor:pointer;" transform="translate(474,153)"><text x="5" style="font-size:10px;font-weight:bold;font-family:'arial', sans-serif;color:#000;text-shadow:none;fill:#000;text-rendering:geometricprecision;" y="15"><tspan>AI: 52.2%</tspan></text></g><g style="cursor:pointer;" transform="translate(33,205)"><text x="5" style="font-size:10px;font-weight:bold;font-family:'arial', sans-serif;color:#000;text-shadow:none;fill:#000;text-rendering:geometricprecision;" y="15"><tspan>Android: 30.4%</tspan></text></g><g style="cursor:pointer;" transform="translate(49,31)"><text x="5" style="font-size:10px;font-weight:bold;font-family:'arial', sans-serif;color:#000;text-shadow:none;fill:#000;text-rendering:geometricprecision;" y="15"><tspan>Electronics: 17.4%</tspan></text></g></g><g class="highcharts-legend" transform="translate(179,356)"><g><g><g class="highcharts-legend-item" transform="translate(8,3)"><text x="21" style="color:#333;font-size:9pt;font-weight:normal;cursor:pointer;font-family:'lucida grande','lucida sans unicode',arial,helvetica,sans-serif;text-transform:none;fill:#333;" text-anchor="start" y="15">AI</text><rect x="0" y="4" width="16" height="12" fill="url(#highcharts-41)"></rect></g><g class="highcharts-legend-item" transform="translate(61.5625,3)"><text x="21" y="15" style="color:#333;font-size:9pt;font-weight:normal;cursor:pointer;font-family:'lucida grande','lucida sans unicode',arial,helvetica,sans-serif;text-transform:none;fill:#333;" text-anchor="start">Android</text><rect x="0" y="4" width="16" height="12" fill="url(#highcharts-42)"></rect></g><g class="highcharts-legend-item" transform="translate(149.96875,3)"><text x="21" y="15" style="color:#333;font-size:9pt;font-weight:normal;cursor:pointer;font-family:'lucida grande','lucida sans unicode',arial,helvetica,sans-serif;text-transform:none;fill:#333;" text-anchor="start">Electronics</text><rect x="0" y="4" width="16" height="12" fill="url(#highcharts-43)"></rect></g></g></g></g><g class="highcharts-tooltip" display="none" style="cursor:default;padding:0;pointer-events:none;white-space:nowrap;" transform="translate(0,0)"><path fill="none" d="M 3.5 0.5 L 13.5 0.5 C 16.5 0.5 16.5 0.5 16.5 3.5 L 16.5 13.5 C 16.5 16.5 16.5 16.5 13.5 16.5 L 3.5 16.5 C 0.5 16.5 0.5 16.5 0.5 13.5 L 0.5 3.5 C 0.5 0.5 0.5 0.5 3.5 0.5"  stroke="black" stroke-opacity="0.049999999999999996" stroke-width="5" transform="translate(1, 1)"></path><path fill="none" d="M 3.5 0.5 L 13.5 0.5 C 16.5 0.5 16.5 0.5 16.5 3.5 L 16.5 13.5 C 16.5 16.5 16.5 16.5 13.5 16.5 L 3.5 16.5 C 0.5 16.5 0.5 16.5 0.5 13.5 L 0.5 3.5 C 0.5 0.5 0.5 0.5 3.5 0.5"  stroke="black" stroke-opacity="0.09999999999999999" stroke-width="3" transform="translate(1, 1)"></path><path fill="none" d="M 3.5 0.5 L 13.5 0.5 C 16.5 0.5 16.5 0.5 16.5 3.5 L 16.5 13.5 C 16.5 16.5 16.5 16.5 13.5 16.5 L 3.5 16.5 C 0.5 16.5 0.5 16.5 0.5 13.5 L 0.5 3.5 C 0.5 0.5 0.5 0.5 3.5 0.5"  stroke="black" stroke-opacity="0.15" stroke-width="1" transform="translate(1, 1)"></path><path fill="rgb(249, 249, 249)" fill-opacity=" .85" d="M 3.5 0.5 L 13.5 0.5 C 16.5 0.5 16.5 0.5 16.5 3.5 L 16.5 13.5 C 16.5 16.5 16.5 16.5 13.5 16.5 L 3.5 16.5 C 0.5 16.5 0.5 16.5 0.5 13.5 L 0.5 3.5 C 0.5 0.5 0.5 0.5 3.5 0.5"></path><text x="8" style="font-size:12px;color:#000000;fill:#000000;" y="20"></text></g><text x="590" text-anchor="end" style="cursor:pointer;color:#909090;font-size:9px;fill:#909090;" y="395">meta-chart.com</text></svg>