<svg xmlns="http://www.w3.org/2000/svg" xmlns:xlink="http://www.w3.org/1999/xlink" style="font-family:'lucida grande','lucida sans unicode',arial,helvetica,sans-serif;font-size:12px" width="600" height="400" version="1.1"><desc>Created with Highcharts 4.2.7</desc><defs><radialGradient id="highcharts-41" cx=".5" cy=".3" r=".7"><stop offset="0" stop-color="#4eb432" stop-opacity="1"/><stop offset="1" stop-color="#026800" stop-opacity="1"/></radialGradient><radialGradient id="highcharts-42" cx=".5" cy=".3" r=".7"><stop offset="0" stop-color="#1bd7ed" stop-opacity="1"/><stop offset="1" stop-color="#008BA1" stop-opacity="1"/></radialGradient><radialGradient id="highcharts-43" cx=".5" cy=".3" r=".7"><stop offset="0" stop-color="#3800df" stop-opacity="1"/><stop offset="1" stop-color="#000093" stop-opacity="1"/></radialGradient><clipPath id="highcharts-44"><rect width="600" height="400" x="0" y="0"/></clipPath><radialGradient id="highcharts-45" cx=".5" cy=".3" r=".7"><stop offset="0" stop-color="#359B19" stop-opacity="1"/><stop offset="1" stop-color="#004F00" stop-opacity="1"/></radialGradient><radialGradient id="highcharts-46" cx="290" cy="96.4" r="201.6" gradientUnits="userSpaceOnUse"><stop offset="0" stop-color="#4eb432" stop-opacity="1"/><stop offset="1" stop-color="#026800" stop-opacity="1"/></radialGradient><radialGradient id="highcharts-47" cx=".5" cy=".3" r=".7"><stop offset="0" stop-color="#02BED4" stop-opacity="1"/><stop offset="1" stop-color="#007288" stop-opacity="1"/></radialGradient><radialGradient id="highcharts-48" cx="290" cy="96.4" r="201.6" gradientUnits="userSpaceOnUse"><stop offset="0" stop-color="#1bd7ed" stop-opacity="1"/><stop offset="1" stop-color="#008BA1" stop-opacity="1"/></radialGradient><radialGradient id="highcharts-49" cx=".5" cy=".3" r=".7"><stop offset="0" stop-color="#1F00C6" stop-opacity="1"/><stop offset="1" stop-color="#00007A" stop-opacity="1"/></radialGradient><radialGradient id="highcharts-50" cx="290" cy="96.4" r="201.6" gradientUnits="userSpaceOnUse"><stop offset="0" stop-color="#3800df" stop-opacity="1"/><stop offset="1" stop-color="#000093" stop-opacity="1"/></radialGradient></defs><rect width="580" height="308" x="10" y="36" fill="#fff"/><rect width="580" height="308" x="10" y="36" fill="none" stroke="#026FC1" stroke-width="2"/><g class="highcharts-series-group"><g class="highcharts-series highcharts-series-0"><path fill="url(#highcharts-45)" d="M 270.4486840819698 254.88048881194368 L 270.4486840819698 262.8354401002923 L 290 161.95495128834867 L 290 154 Z" transform="translate(10,36) scale(1 1) translate(0,0)" visibility="visible"/><path fill="url(#highcharts-49)" d="M 162.16698774385998 107.1239881308064 L 162.16698774385998 115.07893941915505 L 290 161.95495128834867 L 290 154 Z" transform="translate(10,36) scale(1 1) translate(0,0)" visibility="visible"/><path fill="url(#highcharts-49)" d="M 289.942546826129 52.176631613531825 L 289.942546826129 60.131582901880485 L 290 161.95495128834867 L 290 154 Z" transform="translate(10,36) scale(1 1) translate(0,0)" visibility="visible"/><path fill="url(#highcharts-47)" d="M 270.4472574173928 254.880350558219 L 270.4472574173928 262.83530184656763 L 290 161.95495128834867 L 290 154 Z" transform="translate(10,36) scale(1 1) translate(0,0)" visibility="visible"/><path fill="url(#highcharts-49)" d="M 162.16698774385998 107.1239881308064 C 187.61931443317386 72.41916299869439 234.65538536685943 52.192229324305345 289.942546826129 52.176631613531825 L 289.942546826129 60.131582901880485 C 234.65538536685943 60.147180612654005 187.61931443317386 80.37411428704304 162.16698774385998 115.07893941915505 Z" transform="translate(10,36) scale(1 1) translate(0,0)" visibility="visible"/><path fill="url(#highcharts-49)" d="M 290 154 C 290 154 290 154 290 154 L 290 161.95495128834867 C 290 161.95495128834867 290 161.95495128834867 290 161.95495128834867 Z" transform="translate(10,36) scale(1 1) translate(0,0)" visibility="visible"/><path fill="url(#highcharts-47)" d="M 162.1663248233343 107.12489204904846 L 162.1663248233343 115.07984333739711 L 290 161.95495128834867 L 290 154 Z" transform="translate(10,36) scale(1 1) translate(0,0)" visibility="visible"/><path fill="url(#highcharts-45)" d="M 289.9706710586679 52.17662562109521 L 289.9706710586679 60.13157690944387 L 290 161.95495128834867 L 290 154 Z" transform="translate(10,36) scale(1 1) translate(0,0)" visibility="visible"/><path fill="url(#highcharts-47)" d="M 270.4472574173928 254.880350558219 C 198.48689244878494 247.90663127296708 146 205.3593207108225 146 154 L 146 161.95495128834867 C 146 144.8280249235676 151.01595645920776 130.283995710245 162.1663248233343 115.07984333739711 L 162.1663248233343 107.12489204904846 C 151.01595645920776 122.32904442189634 146 136.87307363521893 146 154 L 146 161.95495128834867 C 146 213.31427199917115 198.48689244878494 255.86158256131574 270.4472574173928 262.83530184656763 Z" transform="translate(10,36) scale(1 1) translate(0,0)" visibility="visible"/><path fill="url(#highcharts-47)" d="M 290 154 C 290 154 290 154 290 154 C 290 154 290 154 290 154 L 290 161.95495128834867 C 290 161.95495128834867 290 161.95495128834867 290 161.95495128834867 C 290 161.95495128834867 290 161.95495128834867 290 161.95495128834867 Z" transform="translate(10,36) scale(1 1) translate(0,0)" visibility="visible"/><path fill="url(#highcharts-45)" d="M 434 154 C 434 210.23549801218292 369.5290039756343 255.82337649086287 290 255.82337649086287 C 283.10455022524434 255.82337649086287 277.280281774254 255.54249355775593 270.4486840819698 254.88048881194368 L 270.4486840819698 262.8354401002923 C 349.24124697158226 270.4707039019864 421.86866183602586 231.4945748814208 432.666555456678 175.77981935510832 C 433.60277154656103 170.94915030055583 434 166.83077058340965 434 161.95495128834867 Z" transform="translate(10,36) scale(1 1) translate(0,0)" visibility="visible"/><path fill="url(#highcharts-45)" d="M 290 154 C 290 154 290 154 290 154 C 290 154 290 154 290 154 C 290 154 290 154 290 154 L 290 161.95495128834867 C 290 161.95495128834867 290 161.95495128834867 290 161.95495128834867 C 290 161.95495128834867 290 161.95495128834867 290 161.95495128834867 C 290 161.95495128834867 290 161.95495128834867 290 161.95495128834867 Z" transform="translate(10,36) scale(1 1) translate(0,0)" visibility="visible"/><g stroke="#FFF" stroke-linejoin="round" stroke-width="1"><path fill="url(#highcharts-46)" d="M 289.9706710586679 52.17662562109521 C 369.4996733847603 52.16517195705368 433.9837990862139 97.74376446091838 433.99999701324026 153.97926130669904 C 434.01619494026664 210.2147581524797 369.5583312674245 255.81192071486325 290.0293289413321 255.8233743789048 C 283.1235673891238 255.8243689377507 277.2904982062307 255.5434835643047 270.4486840819698 254.88048881194368 L 290 154 C 290 154 290 154 290 154 C 290 154 290 154 290 154 C 290 154 290 154 290 154 Z" transform="translate(10,36) scale(1 1) translate(0,0)" visibility="visible"/></g><g stroke="#FFF" stroke-linejoin="round" stroke-width="1"><path fill="url(#highcharts-48)" d="M 270.4472574173928 254.880350558219 C 191.65480251065617 247.24452960935142 136.5349585178734 195.88880229993225 147.3336400636145 140.17412312904352 C 149.6861032320567 128.03683302229138 154.1905583673918 118.00029674657732 162.1663248233343 107.12489204904846 L 290 154 C 290 154 290 154 290 154 C 290 154 290 154 290 154 Z" transform="translate(10,36) scale(1 1) translate(0,0)" visibility="visible"/></g><g stroke="#FFF" stroke-linejoin="round" stroke-width="1"><path fill="url(#highcharts-50)" d="M 162.16698774385998 107.1239881308064 C 187.61931443317386 72.41916299869439 234.65538536685943 52.192229324305345 289.942546826129 52.176631613531825 L 290 154 C 290 154 290 154 290 154 Z" transform="translate(10,36) scale(1 1) translate(0,0)" visibility="visible"/></g></g></g><text x="300" y="17" class="highcharts-title" text-anchor="middle" style="color:#000;font-size:10px;font-family:'arial',sans-serif;fill:#000;width:536px"><tspan>Intrest</tspan></text><g class="highcharts-data-labels highcharts-series-0" opacity="1"><path fill="none" stroke="url(#highcharts-41)" stroke-width="1" d="M 468.7666512955276 163.00837929588482 C 463.7666512955276 163.00837929588482 455.6130156856294 162.46243998896745 444.6386592245335 161.71177344195607 L 433.6643027634376 160.9611068949447" transform="translate(10,36) scale(1 1)"/><path fill="none" stroke="url(#highcharts-42)" stroke-width="1" d="M 121.91103128640566 214.6464202071008 C 126.91103128640566 214.6464202071008 142.6110537452057 210.96589990525158 152.37779114763183 205.9051844902089 L 162.14452855005794 200.84446907516624" transform="translate(10,36) scale(1 1)"/><path fill="none" stroke="url(#highcharts-43)" stroke-width="1" d="M 152.37342875646075 41.36700039427872 C 157.37342875646075 41.36700039427872 203.749064294118 48.20235563065063 209.46448774450778 57.600969080662004 L 215.17991119489756 66.99958253067338" transform="translate(10,36) scale(1 1)"/><g style="cursor:pointer"><text x="5" y="15" transform="translate(10,36) scale(1 1) translate(474,153)" style="font-size:10px;font-weight:700;font-family:'arial',sans-serif;color:#000;text-shadow:none;fill:#000;text-rendering:geometricprecision"><tspan>AI: 52.2%</tspan></text></g><g style="cursor:pointer"><text x="5" y="15" transform="translate(10,36) scale(1 1) translate(33,205)" style="font-size:10px;font-weight:700;font-family:'arial',sans-serif;color:#000;text-shadow:none;fill:#000;text-rendering:geometricprecision"><tspan>Android: 30.4%</tspan></text></g><g style="cursor:pointer"><text x="5" y="15" transform="translate(10,36) scale(1 1) translate(49,31)" style="font-size:10px;font-weight:700;font-family:'arial',sans-serif;color:#000;text-shadow:none;fill:#000;text-rendering:geometricprecision"><tspan>Electronics: 17.4%</tspan></text></g></g><g class="highcharts-legend"><g><g><g class="highcharts-legend-item" transform="translate(179,356) translate(8,3)"><text x="21" y="15" text-anchor="start" style="color:#333;font-size:9pt;font-weight:400;cursor:pointer;font-family:'lucida grande','lucida sans unicode',arial,helvetica,sans-serif;text-transform:none;fill:#333">AI</text><rect width="16" height="12" x="0" y="4" fill="url(#highcharts-41)"/></g><g class="highcharts-legend-item" transform="translate(179,356) translate(61.5625,3)"><text x="21" y="15" text-anchor="start" style="color:#333;font-size:9pt;font-weight:400;cursor:pointer;font-family:'lucida grande','lucida sans unicode',arial,helvetica,sans-serif;text-transform:none;fill:#333">Android</text><rect width="16" height="12" x="0" y="4" fill="url(#highcharts-42)"/></g><g class="highcharts-legend-item" transform="translate(179,356) translate(149.96875,3)"><text x="21" y="15" text-anchor="start" style="color:#333;font-size:9pt;font-weight:400;cursor:pointer;font-family:'lucida grande','lucida sans unicode',arial,helvetica,sans-serif;text-transform:none;fill:#333">Electronics</text><rect width="16" height="12" x="0" y="4" fill="url(#highcharts-43)"/></g></g></g></g><g class="highcharts-tooltip" display="none" style="cursor:default;padding:0;pointer-events:none;white-space:nowrap"><path fill="none" stroke="#000" stroke-opacity=".05" stroke-width="5" d="M 3.5 0.5 L 13.5 0.5 C 16.5 0.5 16.5 0.5 16.5 3.5 L 16.5 13.5 C 16.5 16.5 16.5 16.5 13.5 16.5 L 3.5 16.5 C 0.5 16.5 0.5 16.5 0.5 13.5 L 0.5 3.5 C 0.5 0.5 0.5 0.5 3.5 0.5" transform="translate(0,0) translate(1, 1)"/><path fill="none" stroke="#000" stroke-opacity=".1" stroke-width="3" d="M 3.5 0.5 L 13.5 0.5 C 16.5 0.5 16.5 0.5 16.5 3.5 L 16.5 13.5 C 16.5 16.5 16.5 16.5 13.5 16.5 L 3.5 16.5 C 0.5 16.5 0.5 16.5 0.5 13.5 L 0.5 3.5 C 0.5 0.5 0.5 0.5 3.5 0.5" transform="translate(0,0) translate(1, 1)"/><path fill="none" stroke="#000" stroke-opacity=".15" stroke-width="1" d="M 3.5 0.5 L 13.5 0.5 C 16.5 0.5 16.5 0.5 16.5 3.5 L 16.5 13.5 C 16.5 16.5 16.5 16.5 13.5 16.5 L 3.5 16.5 C 0.5 16.5 0.5 16.5 0.5 13.5 L 0.5 3.5 C 0.5 0.5 0.5 0.5 3.5 0.5" transform="translate(0,0) translate(1, 1)"/><path fill="#F9F9F9" fill-opacity=".85" d="M 3.5 0.5 L 13.5 0.5 C 16.5 0.5 16.5 0.5 16.5 3.5 L 16.5 13.5 C 16.5 16.5 16.5 16.5 13.5 16.5 L 3.5 16.5 C 0.5 16.5 0.5 16.5 0.5 13.5 L 0.5 3.5 C 0.5 0.5 0.5 0.5 3.5 0.5" transform="translate(0,0)"/></g><text x="590" y="395" text-anchor="end" style="cursor:pointer;color:#909090;font-size:9px;fill:#909090">meta-chart.com</text></svg>