<svg xmlns="http://www.w3.org/2000/svg" xmlns:xlink="http://www.w3.org/1999/xlink" style="font-family:'lucida grande','lucida sans unicode',arial,helvetica,sans-serif;font-size:12px" width="600" height="400" version="1.1"><desc>Created with Highcharts 4.2.7</desc><defs><radialGradient id="highcharts-15" cx=".5" cy=".3" r=".7"><stop offset="0" stop-color="#50B432" stop-opacity="1"/><stop offset="1" stop-color="#046800" stop-opacity="1"/></radialGradient><radialGradient id="highcharts-16" cx=".5" cy=".3" r=".7"><stop offset="0" stop-color="#ED561B" stop-opacity="1"/><stop offset="1" stop-color="#A10A00" stop-opacity="1"/></radialGradient><radialGradient id="highcharts-17" cx=".5" cy=".3" r=".7"><stop offset="0" stop-color="#DDDF00" stop-opacity="1"/><stop offset="1" stop-color="#919300" stop-opacity="1"/></radialGradient><clipPath id="highcharts-18"><rect width="600" height="400" x="0" y="0"/></clipPath><radialGradient id="highcharts-19" cx=".5" cy=".3" r=".7"><stop offset="0" stop-color="#379B19" stop-opacity="1"/><stop offset="1" stop-color="#004F00" stop-opacity="1"/></radialGradient><radialGradient id="highcharts-20" cx="290" cy="96.4" r="201.6" gradientUnits="userSpaceOnUse"><stop offset="0" stop-color="#50B432" stop-opacity="1"/><stop offset="1" stop-color="#046800" stop-opacity="1"/></radialGradient><radialGradient id="highcharts-21" cx=".5" cy=".3" r=".7"><stop offset="0" stop-color="#D43D02" stop-opacity="1"/><stop offset="1" stop-color="#800" stop-opacity="1"/></radialGradient><radialGradient id="highcharts-22" cx="290" cy="96.4" r="201.6" gradientUnits="userSpaceOnUse"><stop offset="0" stop-color="#ED561B" stop-opacity="1"/><stop offset="1" stop-color="#A10A00" stop-opacity="1"/></radialGradient><radialGradient id="highcharts-23" cx=".5" cy=".3" r=".7"><stop offset="0" stop-color="#C4C600" stop-opacity="1"/><stop offset="1" stop-color="#787A00" stop-opacity="1"/></radialGradient><radialGradient id="highcharts-24" cx="290" cy="96.4" r="201.6" gradientUnits="userSpaceOnUse"><stop offset="0" stop-color="#DDDF00" stop-opacity="1"/><stop offset="1" stop-color="#919300" stop-opacity="1"/></radialGradient></defs><rect width="580" height="308" x="10" y="36" fill="#fff"/><rect width="580" height="308" x="10" y="36" fill="none" stroke="#026FC1" stroke-width="2"/><g class="highcharts-series-group"><g class="highcharts-series highcharts-series-0"><path fill="url(#highcharts-19)" d="M 362.0258816726971 242.17106205913205 L 362.0258816726971 250.12601334748072 L 290 161.95495128834867 L 290 154 Z" transform="translate(10,36) scale(1 1) translate(0,0)" visibility="visible"/><path fill="url(#highcharts-23)" d="M 146.00001194703887 153.95852261425838 L 146.00001194703887 161.91347390260705 L 290 161.95495128834867 L 290 154 Z" transform="translate(10,36) scale(1 1) translate(0,0)" visibility="visible"/><path fill="url(#highcharts-23)" d="M 289.942546826129 52.176631613531825 L 289.942546826129 60.131582901880485 L 290 161.95495128834867 L 290 154 Z" transform="translate(10,36) scale(1 1) translate(0,0)" visibility="visible"/><path fill="url(#highcharts-21)" d="M 362.0246347419781 242.17157135461702 L 362.0246347419781 250.12652264296568 L 290 161.95495128834867 L 290 154 Z" transform="translate(10,36) scale(1 1) translate(0,0)" visibility="visible"/><path fill="url(#highcharts-23)" d="M 146.00001194703887 153.95852261425838 C 146.0323911708643 97.75189627248702 210.45437329025538 52.199056956197346 289.942546826129 52.176631613531825 L 289.942546826129 60.131582901880485 C 210.45437329025538 60.154008244546006 146.0323911708643 105.70684756083567 146.00001194703887 161.91347390260705 Z" transform="translate(10,36) scale(1 1) translate(0,0)" visibility="visible"/><path fill="url(#highcharts-23)" d="M 290 154 C 290 154 290 154 290 154 L 290 161.95495128834867 C 290 161.95495128834867 290 161.95495128834867 290 161.95495128834867 Z" transform="translate(10,36) scale(1 1) translate(0,0)" visibility="visible"/><path fill="url(#highcharts-19)" d="M 289.9706710586679 52.17662562109521 L 289.9706710586679 60.13157690944387 L 290 161.95495128834867 L 290 154 Z" transform="translate(10,36) scale(1 1) translate(0,0)" visibility="visible"/><path fill="url(#highcharts-21)" d="M 146.00001136766005 153.95954084794087 L 146.00001136766005 161.91449213628954 L 290 161.95495128834867 L 290 154 Z" transform="translate(10,36) scale(1 1) translate(0,0)" visibility="visible"/><path fill="url(#highcharts-19)" d="M 434 154 C 434 191.4829015445382 407.9273710926945 223.42287434110244 362.0258816726971 242.17106205913205 L 362.0258816726971 250.12601334748072 C 407.9273710926945 231.3778256294511 434 199.43785283288688 434 161.95495128834867 Z" transform="translate(10,36) scale(1 1) translate(0,0)" visibility="visible"/><path fill="url(#highcharts-19)" d="M 290 154 C 290 154 290 154 290 154 C 290 154 290 154 290 154 L 290 161.95495128834867 C 290 161.95495128834867 290 161.95495128834867 290 161.95495128834867 C 290 161.95495128834867 290 161.95495128834867 290 161.95495128834867 Z" transform="translate(10,36) scale(1 1) translate(0,0)" visibility="visible"/><path fill="url(#highcharts-21)" d="M 362.0246347419781 242.17157135461702 C 293.1583538302613 270.2989408258719 205.0846753546812 253.62492186630956 165.30656797455353 204.92910763853695 C 152.0421961542568 188.69104533364307 146 172.75223846134526 146 154 L 146 161.95495128834867 C 146 161.9407260365575 146.00000337402636 161.92871738695774 146.00001136766005 161.91449213628954 L 146.00001136766005 153.95954084794087 C 146.00000337402636 153.97376609860908 146 153.98577474820883 146 154 L 146 161.95495128834867 C 146 218.19044930053158 210.47099602436572 263.7783277792115 290 263.7783277792115 C 316.51966995688883 263.7783277792115 339.06054680373785 259.5058499052772 362.0246347419781 250.12652264296568 Z" transform="translate(10,36) scale(1 1) translate(0,0)" visibility="visible"/><path fill="url(#highcharts-21)" d="M 290 154 C 290 154 290 154 290 154 C 290 154 290 154 290 154 L 290 161.95495128834867 C 290 161.95495128834867 290 161.95495128834867 290 161.95495128834867 C 290 161.95495128834867 290 161.95495128834867 290 161.95495128834867 Z" transform="translate(10,36) scale(1 1) translate(0,0)" visibility="visible"/><g stroke="#FFF" stroke-linejoin="round" stroke-width="1"><path fill="url(#highcharts-20)" d="M 289.9706710586679 52.17662562109521 C 369.4996733847603 52.16517195705368 433.9837990862139 97.74376446091838 433.99999701324026 153.97926130669904 C 434.01079559126833 191.46945370268395 407.9363004076538 223.4192272160273 362.0258816726971 242.17106205913205 L 290 154 C 290 154 290 154 290 154 C 290 154 290 154 290 154 Z" transform="translate(10,36) scale(1 1) translate(0,0)" visibility="visible"/></g><g stroke="#FFF" stroke-linejoin="round" stroke-width="1"><path fill="url(#highcharts-22)" d="M 362.0246347419781 242.17157135461702 C 293.1583538302613 270.2989408258719 205.0846753546812 253.62492186630956 165.30656797455353 204.92910763853695 C 152.03213394065043 188.6787273095648 145.98946587864643 172.72600307961358 146.00001136766005 153.95954084794087 L 290 154 C 290 154 290 154 290 154 C 290 154 290 154 290 154 Z" transform="translate(10,36) scale(1 1) translate(0,0)" visibility="visible"/></g><g stroke="#FFF" stroke-linejoin="round" stroke-width="1"><path fill="url(#highcharts-24)" d="M 146.00001194703887 153.95852261425838 C 146.0323911708643 97.75189627248702 210.45437329025538 52.199056956197346 289.942546826129 52.176631613531825 L 290 154 C 290 154 290 154 290 154 Z" transform="translate(10,36) scale(1 1) translate(0,0)" visibility="visible"/></g></g></g><text x="300" y="17" class="highcharts-title" text-anchor="middle" style="color:#000;font-size:10px;font-family:'arial',sans-serif;fill:#000;width:536px"><tspan>Domains of startups</tspan></text><g class="highcharts-data-labels highcharts-series-0" opacity="1"><path fill="none" stroke="url(#highcharts-15)" stroke-width="1" d="M 465.62383291611434 119.88977219346215 C 460.62383291611434 119.88977219346215 450.34368716398535 121.96032455428231 439.7185030748056 124.80733405041003 L 429.09331898562584 127.65434354653776" transform="translate(10,36) scale(1 1)"/><path fill="none" stroke="url(#highcharts-16)" stroke-width="1" d="M 153.68951707190953 268.1646051681153 C 158.68951707190953 268.1646051681153 206.99999999999997 261.2364019378399 212.49999999999997 251.71012249621103 L 217.99999999999997 242.18384305458218" transform="translate(10,36) scale(1 1)"/><path fill="none" stroke="url(#highcharts-17)" stroke-width="1" d="M 138.0736587222183 60.78707043159291 C 143.0736587222183 60.78707043159291 172.62027432303307 66.44392468108529 180.3984489160851 74.2220992741373 L 188.17662350913713 82.00027386718932" transform="translate(10,36) scale(1 1)"/><g style="cursor:pointer"><text x="5" y="15" transform="translate(10,36) scale(1 1) translate(471,110)" style="font-size:10px;font-weight:700;font-family:'arial',sans-serif;color:#000;text-shadow:none;fill:#000;text-rendering:geometricprecision"><tspan>AI: 41.7%</tspan></text></g><g style="cursor:pointer"><text x="5" y="15" transform="translate(10,36) scale(1 1) translate(65,258)" style="font-size:10px;font-weight:700;font-family:'arial',sans-serif;color:#000;text-shadow:none;fill:#000;text-rendering:geometricprecision"><tspan>Android: 33.3%</tspan></text></g><g style="cursor:pointer"><text x="5" y="15" transform="translate(10,36) scale(1 1) translate(35,51)" style="font-size:10px;font-weight:700;font-family:'arial',sans-serif;color:#000;text-shadow:none;fill:#000;text-rendering:geometricprecision"><tspan>Electronics: 25.0%</tspan></text></g></g><g class="highcharts-legend"><g><g><g class="highcharts-legend-item" transform="translate(179,356) translate(8,3)"><text x="21" y="15" text-anchor="start" style="color:#333;font-size:9pt;font-weight:400;cursor:pointer;font-family:'lucida grande','lucida sans unicode',arial,helvetica,sans-serif;text-transform:none;fill:#333">AI</text><rect width="16" height="12" x="0" y="4" fill="url(#highcharts-15)"/></g><g class="highcharts-legend-item" transform="translate(179,356) translate(61.5625,3)"><text x="21" y="15" text-anchor="start" style="color:#333;font-size:9pt;font-weight:400;cursor:pointer;font-family:'lucida grande','lucida sans unicode',arial,helvetica,sans-serif;text-transform:none;fill:#333">Android</text><rect width="16" height="12" x="0" y="4" fill="url(#highcharts-16)"/></g><g class="highcharts-legend-item" transform="translate(179,356) translate(149.96875,3)"><text x="21" y="15" text-anchor="start" style="color:#333;font-size:9pt;font-weight:400;cursor:pointer;font-family:'lucida grande','lucida sans unicode',arial,helvetica,sans-serif;text-transform:none;fill:#333">Electronics</text><rect width="16" height="12" x="0" y="4" fill="url(#highcharts-17)"/></g></g></g></g><g class="highcharts-tooltip" display="none" style="cursor:default;padding:0;pointer-events:none;white-space:nowrap"><path fill="none" stroke="#000" stroke-opacity=".05" stroke-width="5" d="M 3.5 0.5 L 13.5 0.5 C 16.5 0.5 16.5 0.5 16.5 3.5 L 16.5 13.5 C 16.5 16.5 16.5 16.5 13.5 16.5 L 3.5 16.5 C 0.5 16.5 0.5 16.5 0.5 13.5 L 0.5 3.5 C 0.5 0.5 0.5 0.5 3.5 0.5" transform="translate(0,0) translate(1, 1)"/><path fill="none" stroke="#000" stroke-opacity=".1" stroke-width="3" d="M 3.5 0.5 L 13.5 0.5 C 16.5 0.5 16.5 0.5 16.5 3.5 L 16.5 13.5 C 16.5 16.5 16.5 16.5 13.5 16.5 L 3.5 16.5 C 0.5 16.5 0.5 16.5 0.5 13.5 L 0.5 3.5 C 0.5 0.5 0.5 0.5 3.5 0.5" transform="translate(0,0) translate(1, 1)"/><path fill="none" stroke="#000" stroke-opacity=".15" stroke-width="1" d="M 3.5 0.5 L 13.5 0.5 C 16.5 0.5 16.5 0.5 16.5 3.5 L 16.5 13.5 C 16.5 16.5 16.5 16.5 13.5 16.5 L 3.5 16.5 C 0.5 16.5 0.5 16.5 0.5 13.5 L 0.5 3.5 C 0.5 0.5 0.5 0.5 3.5 0.5" transform="translate(0,0) translate(1, 1)"/><path fill="#F9F9F9" fill-opacity=".85" d="M 3.5 0.5 L 13.5 0.5 C 16.5 0.5 16.5 0.5 16.5 3.5 L 16.5 13.5 C 16.5 16.5 16.5 16.5 13.5 16.5 L 3.5 16.5 C 0.5 16.5 0.5 16.5 0.5 13.5 L 0.5 3.5 C 0.5 0.5 0.5 0.5 3.5 0.5" transform="translate(0,0)"/></g><text x="590" y="395" text-anchor="end" style="cursor:pointer;color:#909090;font-size:9px;fill:#909090">meta-chart.com</text></svg>