<?xml version="1.0" standalone="no"?><!DOCTYPE svg PUBLIC "-//W3C//DTD SVG 1.1//EN" "http://www.w3.org/Graphics/SVG/1.1/DTD/svg11.dtd"><svg xmlns:xlink="http://www.w3.org/1999/xlink" version="1.1" style="font-family:'lucida grande', 'lucida sans unicode', arial, helvetica, sans-serif;font-size:12px;" xmlns="http://www.w3.org/2000/svg" width="600" height="400"><desc>Created with Highcharts 4.2.7</desc><defs><radialGradient cx="0.5" cy="0.3" r="0.7" id="highcharts-15"><stop offset="0" stop-color="#50B432" stop-opacity="1"></stop><stop offset="1" stop-color="rgb(4,104,0)" stop-opacity="1"></stop></radialGradient><radialGradient cx="0.5" cy="0.3" r="0.7" id="highcharts-16"><stop offset="0" stop-color="#ED561B" stop-opacity="1"></stop><stop offset="1" stop-color="rgb(161,10,0)" stop-opacity="1"></stop></radialGradient><radialGradient cx="0.5" cy="0.3" r="0.7" id="highcharts-17"><stop offset="0" stop-color="#DDDF00" stop-opacity="1"></stop><stop offset="1" stop-color="rgb(145,147,0)" stop-opacity="1"></stop></radialGradient><clipPath id="highcharts-18"><rect x="0" y="0" width="600" height="400"></rect></clipPath><radialGradient cx="0.5" cy="0.3" r="0.7" id="highcharts-19"><stop offset="0" stop-color="rgb(55,155,25)" stop-opacity="1"></stop><stop offset="1" stop-color="rgb(0,79,0)" stop-opacity="1"></stop></radialGradient><radialGradient cx="290" cy="96.39999999999999" r="201.6" id="highcharts-20" gradientUnits="userSpaceOnUse"><stop offset="0" stop-color="#50B432" stop-opacity="1"></stop><stop offset="1" stop-color="rgb(4,104,0)" stop-opacity="1"></stop></radialGradient><radialGradient cx="0.5" cy="0.3" r="0.7" id="highcharts-21"><stop offset="0" stop-color="rgb(212,61,2)" stop-opacity="1"></stop><stop offset="1" stop-color="rgb(136,0,0)" stop-opacity="1"></stop></radialGradient><radialGradient cx="290" cy="96.39999999999999" r="201.6" id="highcharts-22" gradientUnits="userSpaceOnUse"><stop offset="0" stop-color="#ED561B" stop-opacity="1"></stop><stop offset="1" stop-color="rgb(161,10,0)" stop-opacity="1"></stop></radialGradient><radialGradient cx="0.5" cy="0.3" r="0.7" id="highcharts-23"><stop offset="0" stop-color="rgb(196,198,0)" stop-opacity="1"></stop><stop offset="1" stop-color="rgb(120,122,0)" stop-opacity="1"></stop></radialGradient><radialGradient cx="290" cy="96.39999999999999" r="201.6" id="highcharts-24" gradientUnits="userSpaceOnUse"><stop offset="0" stop-color="#DDDF00" stop-opacity="1"></stop><stop offset="1" stop-color="rgb(145,147,0)" stop-opacity="1"></stop></radialGradient></defs><rect x="10" y="36" width="580" height="308" fill="#ffffff"></rect><rect x="10" y="36" width="580" height="308" stroke="#026FC1" stroke-width="2" fill="none"></rect><g class="highcharts-series-group"><g class="highcharts-series highcharts-series-0" transform="translate(10,36) scale(1 1)"><path fill="url(#highcharts-19)" d="M 362.0258816726971 242.17106205913205 L 362.0258816726971 250.12601334748072 L 290 161.95495128834867 L 290 154 Z" transform="translate(0,0)" visibility="visible"></path><path fill="url(#highcharts-23)" d="M 146.00001194703887 153.95852261425838 L 146.00001194703887 161.91347390260705 L 290 161.95495128834867 L 290 154 Z" transform="translate(0,0)" visibility="visible"></path><path fill="url(#highcharts-23)" d="M 289.942546826129 52.176631613531825 L 289.942546826129 60.131582901880485 L 290 161.95495128834867 L 290 154 Z" transform="translate(0,0)" visibility="visible"></path><path fill="url(#highcharts-21)" d="M 362.0246347419781 242.17157135461702 L 362.0246347419781 250.12652264296568 L 290 161.95495128834867 L 290 154 Z" transform="translate(0,0)" visibility="visible"></path><path fill="url(#highcharts-23)" d="M 146.00001194703887 153.95852261425838 C 146.0323911708643 97.75189627248702 210.45437329025538 52.199056956197346 289.942546826129 52.176631613531825 L 289.942546826129 60.131582901880485 C 210.45437329025538 60.154008244546006 146.0323911708643 105.70684756083567 146.00001194703887 161.91347390260705 Z" transform="translate(0,0)" visibility="visible"></path><path fill="url(#highcharts-23)" d="M 290 154 C 290 154 290 154 290 154 L 290 161.95495128834867 C 290 161.95495128834867 290 161.95495128834867 290 161.95495128834867 Z" transform="translate(0,0)" visibility="visible"></path><path fill="url(#highcharts-19)" d="M 289.9706710586679 52.17662562109521 L 289.9706710586679 60.13157690944387 L 290 161.95495128834867 L 290 154 Z" transform="translate(0,0)" visibility="visible"></path><path fill="url(#highcharts-21)" d="M 146.00001136766005 153.95954084794087 L 146.00001136766005 161.91449213628954 L 290 161.95495128834867 L 290 154 Z" transform="translate(0,0)" visibility="visible"></path><path fill="url(#highcharts-19)" d="M 434 154 C 434 191.4829015445382 407.9273710926945 223.42287434110244 362.0258816726971 242.17106205913205 L 362.0258816726971 250.12601334748072 C 407.9273710926945 231.3778256294511 434 199.43785283288688 434 161.95495128834867 Z" transform="translate(0,0)" visibility="visible"></path><path fill="url(#highcharts-19)" d="M 290 154 C 290 154 290 154 290 154 C 290 154 290 154 290 154 L 290 161.95495128834867 C 290 161.95495128834867 290 161.95495128834867 290 161.95495128834867 C 290 161.95495128834867 290 161.95495128834867 290 161.95495128834867 Z" transform="translate(0,0)" visibility="visible"></path><path fill="url(#highcharts-21)" d="M 362.0246347419781 242.17157135461702 C 293.1583538302613 270.2989408258719 205.0846753546812 253.62492186630956 165.30656797455353 204.92910763853695 C 152.0421961542568 188.69104533364307 146 172.75223846134526 146 154 L 146 161.95495128834867 C 146 161.9407260365575 146.00000337402636 161.92871738695774 146.00001136766005 161.91449213628954 L 146.00001136766005 153.95954084794087 C 146.00000337402636 153.97376609860908 146 153.98577474820883 146 154 L 146 161.95495128834867 C 146 218.19044930053158 210.47099602436572 263.7783277792115 290 263.7783277792115 C 316.51966995688883 263.7783277792115 339.06054680373785 259.5058499052772 362.0246347419781 250.12652264296568 Z" transform="translate(0,0)" visibility="visible"></path><path fill="url(#highcharts-21)" d="M 290 154 C 290 154 290 154 290 154 C 290 154 290 154 290 154 L 290 161.95495128834867 C 290 161.95495128834867 290 161.95495128834867 290 161.95495128834867 C 290 161.95495128834867 290 161.95495128834867 290 161.95495128834867 Z" transform="translate(0,0)" visibility="visible"></path><g stroke="#FFFFFF" stroke-width="1" stroke-linejoin="round"><path fill="url(#highcharts-20)" d="M 289.9706710586679 52.17662562109521 C 369.4996733847603 52.16517195705368 433.9837990862139 97.74376446091838 433.99999701324026 153.97926130669904 C 434.01079559126833 191.46945370268395 407.9363004076538 223.4192272160273 362.0258816726971 242.17106205913205 L 290 154 C 290 154 290 154 290 154 C 290 154 290 154 290 154 Z" transform="translate(0,0)" visibility="visible"></path></g><g stroke="#FFFFFF" stroke-width="1" stroke-linejoin="round"><path fill="url(#highcharts-22)" d="M 362.0246347419781 242.17157135461702 C 293.1583538302613 270.2989408258719 205.0846753546812 253.62492186630956 165.30656797455353 204.92910763853695 C 152.03213394065043 188.6787273095648 145.98946587864643 172.72600307961358 146.00001136766005 153.95954084794087 L 290 154 C 290 154 290 154 290 154 C 290 154 290 154 290 154 Z" transform="translate(0,0)" visibility="visible"></path></g><g stroke="#FFFFFF" stroke-width="1" stroke-linejoin="round"><path fill="url(#highcharts-24)" d="M 146.00001194703887 153.95852261425838 C 146.0323911708643 97.75189627248702 210.45437329025538 52.199056956197346 289.942546826129 52.176631613531825 L 290 154 C 290 154 290 154 290 154 Z" transform="translate(0,0)" visibility="visible"></path></g></g><g class="highcharts-markers highcharts-series-0" transform="translate(10,36) scale(1 1)"></g></g><text x="300" text-anchor="middle" class="highcharts-title" style="color:#000000;font-size:10px;font-family:'arial', sans-serif;fill:#000000;width:536px;" y="17"><tspan>Domains of startups</tspan></text><g class="highcharts-data-labels highcharts-series-0" transform="translate(10,36) scale(1 1)" opacity="1"><path fill="none" d="M 465.62383291611434 119.88977219346215 C 460.62383291611434 119.88977219346215 450.34368716398535 121.96032455428231 439.7185030748056 124.80733405041003 L 429.09331898562584 127.65434354653776" stroke="url(#highcharts-15)" stroke-width="1"></path><path fill="none" d="M 153.68951707190953 268.1646051681153 C 158.68951707190953 268.1646051681153 206.99999999999997 261.2364019378399 212.49999999999997 251.71012249621103 L 217.99999999999997 242.18384305458218" stroke="url(#highcharts-16)" stroke-width="1"></path><path fill="none" d="M 138.0736587222183 60.78707043159291 C 143.0736587222183 60.78707043159291 172.62027432303307 66.44392468108529 180.3984489160851 74.2220992741373 L 188.17662350913713 82.00027386718932" stroke="url(#highcharts-17)" stroke-width="1"></path><g style="cursor:pointer;" transform="translate(471,110)"><text x="5" style="font-size:10px;font-weight:bold;font-family:'arial', sans-serif;color:#000;text-shadow:none;fill:#000;text-rendering:geometricprecision;" y="15"><tspan>AI: 41.7%</tspan></text></g><g style="cursor:pointer;" transform="translate(65,258)"><text x="5" style="font-size:10px;font-weight:bold;font-family:'arial', sans-serif;color:#000;text-shadow:none;fill:#000;text-rendering:geometricprecision;" y="15"><tspan>Android: 33.3%</tspan></text></g><g style="cursor:pointer;" transform="translate(35,51)"><text x="5" style="font-size:10px;font-weight:bold;font-family:'arial', sans-serif;color:#000;text-shadow:none;fill:#000;text-rendering:geometricprecision;" y="15"><tspan>Electronics: 25.0%</tspan></text></g></g><g class="highcharts-legend" transform="translate(179,356)"><g><g><g class="highcharts-legend-item" transform="translate(8,3)"><text x="21" style="color:#333;font-size:9pt;font-weight:normal;cursor:pointer;font-family:'lucida grande','lucida sans unicode',arial,helvetica,sans-serif;text-transform:none;fill:#333;" text-anchor="start" y="15">AI</text><rect x="0" y="4" width="16" height="12" fill="url(#highcharts-15)"></rect></g><g class="highcharts-legend-item" transform="translate(61.5625,3)"><text x="21" y="15" style="color:#333;font-size:9pt;font-weight:normal;cursor:pointer;font-family:'lucida grande','lucida sans unicode',arial,helvetica,sans-serif;text-transform:none;fill:#333;" text-anchor="start">Android</text><rect x="0" y="4" width="16" height="12" fill="url(#highcharts-16)"></rect></g><g class="highcharts-legend-item" transform="translate(149.96875,3)"><text x="21" y="15" style="color:#333;font-size:9pt;font-weight:normal;cursor:pointer;font-family:'lucida grande','lucida sans unicode',arial,helvetica,sans-serif;text-transform:none;fill:#333;" text-anchor="start">Electronics</text><rect x="0" y="4" width="16" height="12" fill="url(#highcharts-17)"></rect></g></g></g></g><g class="highcharts-tooltip" display="none" style="cursor:default;padding:0;pointer-events:none;white-space:nowrap;" transform="translate(0,0)"><path fill="none" d="M 3.5 0.5 L 13.5 0.5 C 16.5 0.5 16.5 0.5 16.5 3.5 L 16.5 13.5 C 16.5 16.5 16.5 16.5 13.5 16.5 L 3.5 16.5 C 0.5 16.5 0.5 16.5 0.5 13.5 L 0.5 3.5 C 0.5 0.5 0.5 0.5 3.5 0.5"  stroke="black" stroke-opacity="0.049999999999999996" stroke-width="5" transform="translate(1, 1)"></path><path fill="none" d="M 3.5 0.5 L 13.5 0.5 C 16.5 0.5 16.5 0.5 16.5 3.5 L 16.5 13.5 C 16.5 16.5 16.5 16.5 13.5 16.5 L 3.5 16.5 C 0.5 16.5 0.5 16.5 0.5 13.5 L 0.5 3.5 C 0.5 0.5 0.5 0.5 3.5 0.5"  stroke="black" stroke-opacity="0.09999999999999999" stroke-width="3" transform="translate(1, 1)"></path><path fill="none" d="M 3.5 0.5 L 13.5 0.5 C 16.5 0.5 16.5 0.5 16.5 3.5 L 16.5 13.5 C 16.5 16.5 16.5 16.5 13.5 16.5 L 3.5 16.5 C 0.5 16.5 0.5 16.5 0.5 13.5 L 0.5 3.5 C 0.5 0.5 0.5 0.5 3.5 0.5"  stroke="black" stroke-opacity="0.15" stroke-width="1" transform="translate(1, 1)"></path><path fill="rgb(249, 249, 249)" fill-opacity=" .85" d="M 3.5 0.5 L 13.5 0.5 C 16.5 0.5 16.5 0.5 16.5 3.5 L 16.5 13.5 C 16.5 16.5 16.5 16.5 13.5 16.5 L 3.5 16.5 C 0.5 16.5 0.5 16.5 0.5 13.5 L 0.5 3.5 C 0.5 0.5 0.5 0.5 3.5 0.5"></path><text x="8" style="font-size:12px;color:#000000;fill:#000000;" y="20"></text></g><text x="590" text-anchor="end" style="cursor:pointer;color:#909090;font-size:9px;fill:#909090;" y="395">meta-chart.com</text></svg>